<svg xmlns="http://www.w3.org/2000/svg" viewBox="0 0 200 200" fill="none">
  <circle cx="100" cy="100" r="100" fill="#EC796B"/>
  <path d="M100 38C65.8 38 38 65.8 38 100C38 134.2 65.8 162 100 162C134.2 162 162 134.2 162 100C162 65.8 134.2 38 100 38ZM131.2 115.6C131.2 115.6 126.8 120.4 119.6 120.4C112.4 120.4 108 115.6 100 115.6C92 115.6 87.6 120.4 80.4 120.4C73.2 120.4 68.8 115.6 68.8 115.6L74.4 108C74.4 108 77.2 112 80.4 112C87.6 112 92 107.2 100 107.2C108 107.2 112.4 112 119.6 112C122.8 112 125.6 108 125.6 108L131.2 115.6ZM131.2 92C131.2 92 126.8 96.8 119.6 96.8C112.4 96.8 108 92 100 92C92 92 87.6 96.8 80.4 96.8C73.2 96.8 68.8 92 68.8 92L74.4 84.4C74.4 84.4 77.2 88.4 80.4 88.4C87.6 88.4 92 83.6 100 83.6C108 83.6 112.4 88.4 119.6 88.4C122.8 88.4 125.6 84.4 125.6 84.4L131.2 92Z" fill="white"/>
</svg>
